<svg xmlns="http://www.w3.org/2000/svg" viewBox="0 0 1010 1010"><path fill="#72BAAC" d="M892.824 505c0 214.151-173.652 387.805-387.824 387.805-214.19 0-387.863-173.654-387.863-387.805 0-214.23 173.672-387.864 387.863-387.864 214.172 0 387.824 173.633 387.824 387.864z"/><path fill="#5A5A5A" d="M505 1010C226.54 1010 0 783.46 0 505 0 226.54 226.54 0 505 0c278.46 0 505 226.54 505 505 0 278.46-226.54 505-505 505zm0-969.6C248.821 40.4 40.4 248.83 40.4 505c0 256.169 208.421 464.6 464.6 464.6 256.18 0 464.6-208.431 464.6-464.6 0-256.17-208.42-464.6-464.6-464.6z"/><path fill="#5A5A5A" d="M505 1010c-152.693 0-272.305-221.825-272.305-505S352.307 0 505 0c152.684 0 272.286 221.825 272.286 505S657.684 1010 505 1010zm0-969.6c-125.707 0-231.905 212.77-231.905 464.6S379.292 969.6 505 969.6c125.697 0 231.886-212.77 231.886-464.6S630.697 40.4 505 40.4z"/><path fill="#5A5A5A" d="M525.2 989.8h-40.4V20.2h40.4v969.6z"/><path fill="#5A5A5A" d="M989.8 525.2H20.2v-40.4h969.6v40.4zM505 311.877c-151.085 0-292.633-34.108-388.367-93.564l-19.39-12.052 14.321-17.794C208.066 68.687 351.468 0 505 0c153.522 0 296.914 68.688 393.417 188.467l14.321 17.794-19.39 12.052C797.614 277.77 656.066 311.877 505 311.877zM158.296 195.806c88.79 48.27 213.471 75.67 346.704 75.67 133.224 0 257.895-27.4 346.685-75.67C763.408 96.759 638.352 40.4 505 40.4c-133.361 0-258.428 56.359-346.704 155.406zM505 1010c-153.482 0-296.885-68.708-393.436-188.508L97.232 803.7l19.412-12.033c95.732-59.455 237.28-93.543 388.356-93.543 151.066 0 292.604 34.088 388.338 93.543l19.41 12.033-14.331 17.793C801.865 941.292 658.473 1010 505 1010zM158.296 814.154C246.622 913.221 371.678 969.6 505 969.6c133.303 0 258.36-56.38 346.685-155.446-88.8-48.25-213.461-75.63-346.685-75.63-133.233 0-257.905 27.38-346.704 75.63z"/><path fill="#EE7546" d="M787.78 261.456c0 39.65-32.133 71.844-71.824 71.844-39.65 0-71.805-32.194-71.805-71.844 0-39.69 32.155-71.825 71.805-71.825 39.69 0 71.824 32.135 71.824 71.825z"/><path fill="#5A5A5A" d="M715.956 353.5c-50.728 0-92.005-41.288-92.005-92.044 0-50.737 41.277-92.025 92.005-92.025 50.747 0 92.024 41.288 92.024 92.025 0 50.756-41.277 92.044-92.024 92.044zm0-143.669c-28.456 0-51.605 23.16-51.605 51.625 0 28.485 23.149 51.644 51.605 51.644 28.466 0 51.624-23.16 51.624-51.644 0-28.466-23.158-51.625-51.624-51.625z"/><path fill="#d6d6d6" d="M787.78 746.256c0 39.69-32.133 71.844-71.824 71.844-39.65 0-71.805-32.155-71.805-71.844 0-39.65 32.155-71.805 71.805-71.805 39.69 0 71.824 32.154 71.824 71.805z"/><path fill="#5A5A5A" d="M715.956 838.3c-50.728 0-92.005-41.269-92.005-92.044 0-50.736 41.277-92.005 92.005-92.005 50.747 0 92.024 41.269 92.024 92.005 0 50.775-41.277 92.044-92.024 92.044zm0-143.65c-28.456 0-51.605 23.16-51.605 51.606 0 28.484 23.149 51.644 51.605 51.644 28.466 0 51.624-23.16 51.624-51.644 0-28.445-23.158-51.606-51.624-51.606z"/><path fill="#fff" d="M325.45 504.98c0 39.69-32.175 71.825-71.825 71.825-39.67 0-71.825-32.135-71.825-71.824 0-39.691 32.155-71.806 71.824-71.806 39.65 0 71.825 32.115 71.825 71.805z"/><path fill="#5A5A5A" d="M253.625 597.004c-50.747 0-92.025-41.268-92.025-92.023 0-50.717 41.278-92.005 92.025-92.005s92.024 41.288 92.024 92.005c0 50.755-41.278 92.023-92.024 92.023zm0-143.629c-28.466 0-51.625 23.14-51.625 51.605 0 28.465 23.16 51.624 51.624 51.624s51.625-23.159 51.625-51.624c0-28.465-23.16-51.605-51.625-51.605z"/></svg>