<svg xmlns="http://www.w3.org/2000/svg" viewBox="0 0 1010 1010"><path fill="#F8F8F8" d="M20.2 20.2h682.302v969.6H20.2z"/><path fill="#5A5A5A" d="M722.703 1010H0V0h722.703v1010zM40.4 969.6h641.903V40.4H40.4v929.2z"/><path fill="#72BAAC" d="M322.589 242.794c0 64.27-52.118 116.348-116.348 116.348-64.269 0-116.386-52.079-116.386-116.348s52.117-116.347 116.386-116.347c64.23 0 116.348 52.078 116.348 116.347zm-58.193-19.39h-38.783V184.62H186.83v38.782h-38.783v38.783h38.783v38.782h38.782v-38.783h38.782v-38.782z"/><path fill="#EE7546" d="M632.848 242.794c0 64.27-52.078 116.348-116.347 116.348-64.27 0-116.348-52.079-116.348-116.348s52.078-116.347 116.348-116.347c64.269 0 116.347 52.078 116.347 116.347zm-58.194 19.391v-38.782H458.308v38.783h116.346z"/><path fill="#72BAAC" d="M129.86 496.498h-40.4v-40.4h40.4v40.4z"/><path fill="#656872" d="M326.218 496.498h-161.6v-40.4h161.6v40.4z"/><path fill="#72BAAC" d="M129.86 587.398h-40.4v-40.4h40.4v40.4z"/><path fill="#656872" d="M326.218 587.398h-161.6v-40.4h161.6v40.4z"/><path fill="#72BAAC" d="M129.86 678.298h-40.4v-40.4h40.4v40.4z"/><path fill="#656872" d="M326.218 678.298h-161.6v-40.4h161.6v40.4z"/><path fill="#72BAAC" d="M129.86 769.197h-40.4v-40.4h40.4v40.4z"/><path fill="#656872" d="M326.218 769.197h-161.6v-40.4h161.6v40.4z"/><path fill="#72BAAC" d="M129.86 860.098h-40.4v-40.4h40.4v40.4z"/><path fill="#656872" d="M326.218 860.098h-161.6v-40.4h161.6v40.4z"/><path fill="#EE7546" d="M432.86 496.498h-40.4v-40.4h40.4v40.4z"/><path fill="#656872" d="M629.219 496.498h-161.6v-40.4h161.6v40.4z"/><path fill="#EE7546" d="M432.86 587.398h-40.4v-40.4h40.4v40.4z"/><path fill="#656872" d="M629.219 587.398h-161.6v-40.4h161.6v40.4z"/><path fill="#EE7546" d="M432.86 678.298h-40.4v-40.4h40.4v40.4z"/><path fill="#656872" d="M629.219 678.298h-161.6v-40.4h161.6v40.4z"/><path fill="#FFCA70" d="M800.405 20.2h127.138v110.785H800.405z"/><path fill="#d6d6d6" d="M800.405 130.984h127.138v726.568H800.405z"/><path fill="#252525" d="M930.088 857.572H797.86L863.965 989.8z"/><path fill="#5A5A5A" d="M863.965 1010a20.187 20.187 0 0 1-18.07-11.166l-63.56-127.196a20.218 20.218 0 0 1-2.13-9.035V20.2c0-11.165 9.035-20.2 20.2-20.2h127.138c11.166 0 20.2 9.035 20.2 20.2v842.423c0 3.137-.73 6.233-2.13 9.034l-63.579 127.177a20.208 20.208 0 0 1-18.07 11.166zm-43.36-152.17l43.36 86.796 43.379-86.777V40.399h-86.739v817.43z"/><path fill="#5A5A5A" d="M989.8 345.155c-11.146 0-20.2-9.034-20.2-20.2l-.04-173.75H808.553c-11.166 0-20.2-9.036-20.2-20.201 0-11.165 9.034-20.2 20.2-20.2H989.76c11.145 0 20.2 9.035 20.2 20.2l.039 193.952c0 11.145-9.035 20.2-20.2 20.2zm-67.17 532.618H802.18v-40.4h120.45v40.4z"/></svg>