<svg xmlns="http://www.w3.org/2000/svg" viewBox="1988 389 171 44.594"><defs><style>.cls-1{fill:#2b2929}.cls-2{fill:none}.cls-2,.cls-3{stroke:#e67042}.cls-3,.cls-5{fill:rgba(0,0,0,0)}.cls-4{fill:#e67042;font-size:28px;font-family:HelveticaNeue-Thin,Helvetica Neue;font-weight:200}.cls-5{stroke:#67b4a9}.cls-6{fill:#67b4a9;font-size:10px;font-family:Roboto-Regular,Roboto}</style></defs><g id="logo3" transform="translate(-368 26)"><path id="Rectangle_4" data-name="Rectangle 4" class="cls-1" transform="translate(2356 363)" d="M0 0h171v44.594H0z"/><path id="Line_14" data-name="Line 14" class="cls-2" transform="translate(2370.05 368.148)" d="M0 0l.155 35.394"/><path id="Line_15" data-name="Line 15" class="cls-2" transform="translate(2370.05 368.897)" d="M0 0l11.797 9.961"/><path id="Line_16" data-name="Line 16" class="cls-2" transform="translate(2381.311 368.897)" d="M0 9.961L10.189 0"/><path id="Path_12" data-name="Path 12" class="cls-3" d="M0 0v9.456" transform="translate(2391.5 368.148)"/><path id="Path_11" data-name="Path 11" class="cls-2" d="M13.553 1c6.933 0 12.553 5.37 12.553 11.994s-5.62 11.994-12.553 11.994S1 19.618 1 12.994a11.794 11.794 0 0 1 .7-3.954A12.46 12.46 0 0 1 13.553 1z" transform="translate(2380.17 377.857)"/><ellipse id="Ellipse_3" data-name="Ellipse 3" class="cls-1" cx="12.553" cy="12.691" rx="12.553" ry="12.691" transform="translate(2392.724 378.16)"/><text id="he" class="cls-4" transform="translate(2389 401)"><tspan x="0" y="0">he</tspan></text><path id="Path_9" data-name="Path 9" class="cls-5" d="M1.812 2.294v35.394" transform="translate(2419.543 365.854)"/><text id="Дизайн_разработка_продвижение_сайтов" data-name="Дизайн, разработка, продвижение сайтов" class="cls-6" transform="translate(2426 384)"><tspan x="0" y="0">Дизайн, разработка,</tspan><tspan x="0" y="13">продвижение сайтов</tspan></text></g></svg>